<svg height="241" viewBox="0 0 252 241" width="252" xmlns="http://www.w3.org/2000/svg"><g fill="none" fill-rule="evenodd" transform="translate(-.078)"><g fill-rule="nonzero"><path d="m.38827335 182.705471v-65.586619-82.4336327l127.67534065-34.20947469c4.27579-1.14636961 7.747442 1.51799491 7.747442 5.94495519v41.0436012l76.740627-20.1569989c4.437458-1.1652658 8.040334 1.6135257 8.040334 6.2011037v90.1936732l21.592061-5.785387c5.02429-1.34583 9.10377 1.783591 9.10377 6.985296v38.738264c0 5.201705-4.07948 10.517836-9.10377 11.864716l-241.79580465 64.788779z" fill="#234077"/><path d="m37.115 24.955-36.73 9.859 36.73 32.551z" fill="#476bbc"/><path d="m110.296 47.56-36.729 9.858 36.729 32.552z" fill="#3f73bd"/><path d="m73.605 99.842-36.73 9.859 36.73 32.551z" fill="#487dc8"/><path d="m147.017 122.509-36.73 9.859 36.73 32.552z" fill="#425da2"/><path d="m183.703 70.236-36.729 9.859 36.729 32.552z" fill="#6aaee3"/><path d="m37.115 152.181-36.73 9.859 36.73 32.551z" fill="#498cd2"/><path d="m73.605 15.077-36.73 9.858 36.73 32.552z" fill="#487dc8"/><path d="m110.341 5.257-36.73 9.859 36.73 32.552z" fill="#487dc8"/><path d="m110.296 89.912-36.729 9.859 36.729 32.551z" fill="#2f5296"/><path d="m37.115 67.363-36.73 9.859 36.73 32.552z" fill="#476bbc"/><path d="m73.605 142.24-36.73 9.858 36.73 32.552z" fill="#487dc8"/><path d="m73.605 57.378-36.73 9.859 36.73 32.552z" fill="#425da2"/><path d="m147.017 80.056-36.73 9.859 36.73 32.552z" fill="#325295"/><path d="m220.43 144.735-36.73 9.859 31.695 28.07 5.035-1.336z" fill="#3a64ad"/><path d="m220.43 102.735-36.73 9.859 36.73 32.552z" fill="#3a64ad"/><path d="m110.296 132.304-36.729 9.859 36.729 32.552z" fill="#7f9ad6"/><path d="m37.115 109.772-36.73 9.859 36.73 32.551z" fill="#4c9edc"/><path d="m36.875 67.289 36.73-9.859-36.73-32.551z" fill="#476bbc"/><path d="m110.287 89.967 36.73-9.859-36.73-32.551z" fill="#3a64ad"/><path d="m73.567 142.238 36.729-9.859-36.729-32.552z" fill="#425da2"/><path d="m183.7 112.646 36.73-9.859-36.73-32.552z" fill="#325295"/><path d="m.385 119.632 36.73-9.859-36.73-32.552z" fill="#498cd2"/><path d="m36.875 194.515 36.73-9.859-36.73-32.552z" fill="#7f9ad6"/><path d="m73.567 57.475 36.729-9.859-36.729-32.551z" fill="#7f9ad6"/><path d="m36.875 109.641 36.73-9.859-36.73-32.551z" fill="#727ebd"/><path d="m183.7 154.998 36.73-9.859-36.73-32.551z" fill="#32549d"/><path d="m73.567 184.572 36.729-9.859-36.729-32.551z" fill="#6495d5"/><path d="m.385 162.04 36.73-9.858-36.73-32.552z" fill="#50a0dd"/><path d="m73.567 99.777 36.729-9.859-36.729-32.552z" fill="#3a64ad"/><path d="m147.017 122.467 36.729-9.859-36.729-32.552z" fill="#487dc8"/><path d="m.385 77.223 36.73-9.859-36.73-32.551z" fill="#2f5296"/><path d="m110.287 174.712 36.73-9.859-36.73-32.552z" fill="#476bbc"/><path d="m36.875 152.109 36.73-9.858-36.73-32.552z" fill="#7f9ad6"/></g><g fill="#fff"><path d="m129.649 149.23207-4.33248-15.39306-22.27652 5.9691-4.333529 17.71519-17.276378 4.62957 25.275767-87.657381 14.94375-4.003896 25.44374 74.066817zm-15.49908-54.843079-7.55534 30.856449 15.11067-4.04904zm44.5373-33.822103 12.22164 33.056806 12.166-39.590693 17.77713-4.763942-21.66554 57.358371v29.33216l-16.55518 4.43535v-29.33215l-21.72013-45.731959zm-115.310929 111.782582-20.943291 5.61217v-80.885189l21.387352-5.730799c9.443902-2.530691 16.971239-1.547739 22.582011 2.948858 5.610772 4.495896 8.471798 11.95115 8.583075 22.36576v13.10976c0 10.62946-2.805386 19.72344-8.416158 27.28192-5.610773 7.55848-13.341769 12.65765-23.192989 15.29752zm1.333232-67.6316-5.943905 1.59253v53.7198l4.888867-1.31014c5.443506-1.45851 9.276636-3.92061 11.499389-7.38631 2.222053-3.46571 3.388369-8.7318 3.498947-15.79828v-14.05457c0-7.55499-1.055388-12.54043-3.166164-14.95635-2.110776-2.41591-5.703154-3.01814-10.777134-1.80668zm-1.947359-27.543584-4.927709 1.320635c-.285543-.54869-.490952-1.547039-.616226-2.995048-1.678263 2.913515-3.820883 4.719501-6.427859 5.417961-2.625172.703359-4.67436.515797-6.147564-.562687-1.473204-1.077783-2.209806-2.956206-2.209806-5.635267 0-2.945708 1.000099-5.552684 3.000297-7.820928 1.999498-2.267545 4.740497-3.885969 8.222997-4.855275l3.481101-.932212v-3.080081c0-1.732152-.383873-2.861375-1.151619-3.387669-.767745-.526295-1.93721-.579134-3.508395-.158519-1.428413.382824-2.589129 1.118026-3.48215 2.205607-.89302 1.087582-1.339531 2.282941-1.339531 3.586079l-4.739797 1.270245c0-1.482302.437412-3.014644 1.312236-4.597026s2.053387-2.956206 3.53569-4.121472c1.481602-1.164565 3.13327-1.991099 4.955004-2.479601 2.963904-.793641 5.218151-.661017 6.762741.39787 1.544589 1.059587 2.33473 2.995048 2.370423 5.806383v14.624611c.0175 2.226952.320886 4.082979.910167 5.568081zm-11.249539-.762146c1.161067-.310738 2.268244-.928714 3.321533-1.853928 1.053988-.925214 1.821733-1.934411 2.303237-3.027591v-6.910761l-2.678012.718055c-2.250048.638272-4.026641 1.618775-5.329779 2.941509-1.303838 1.322034-1.955757 2.858226-1.955757 4.608574 0 1.64257.330334 2.745898.991001 3.309985.660667.564086 1.776593.635472 3.347777.214157zm24.508375-2.790339-4.740848 1.270244v-25.149795l-3.777141 1.011996v-3.83068l3.777141-1.011996v-3.347777c.05319-2.960406.79854-5.459253 2.236051-7.496544 1.437511-2.036591 3.468853-3.406565 6.094025-4.109924.94621-.253349 1.901518-.357628 2.865924-.312837l-.241451 4.082629c-.678864.021-1.402168.134373-2.169914.340132-2.695858.722255-4.043787 3.003097-4.043787 6.842525v2.731551l4.955004-1.327983v3.83068l-4.955004 1.327983zm25.417491-6.811032-.107078-2.515294c-1.571185 2.474702-3.865673 4.116223-6.883467 4.92456-2.624472.703359-4.606474.328234-5.946005-1.125374-1.338831-1.453607-2.017344-3.910114-2.035541-7.369519v-18.882555l4.714603-1.262896v18.534025c0 4.517592 1.357027 6.412811 4.071082 5.685658 2.875022-.769846 4.857023-2.586681 5.946005-5.450505v-21.453488l4.740847-1.270245v28.980476zm32.569709-24.984978v3.160915c0 4.588977-.82584 8.229645-2.47751 10.922004-1.65166 2.692359-3.98605 4.443058-7.00314 5.252095-2.91071.779643-5.151664.281693-6.722848-1.49385v13.901306l-4.714603 1.262896v-40.122936l4.285239-1.147419.241452 3.149367c1.58938-2.926112 3.86602-4.786338 6.82993-5.580679 3.17806-.851028 5.55303-.380023 7.12491 1.413017 1.57119 1.793039 2.38338 4.887467 2.43657 9.283284zm-4.71356 4.611723v-2.893219c0-3.249447-.50005-5.512442-1.50015-6.788985-1.00009-1.277244-2.60697-1.619125-4.82063-1.025644-2.26824.607478-3.991295 2.203157-5.169158 4.787038v15.079169c1.160367 1.903618 2.901268 2.544339 5.222698 1.922164 2.14227-.574585 3.71801-1.769244 4.7272-3.58398 1.0085-1.814735 1.52185-4.313583 1.54004-7.496543z"/><g transform="matrix(1.0352762 -.25881905 0 .96592581 0 0)"><path d="m37.38608 229.78085h-15.103516v-2.46777l7.700195-10.20508q1.744141-2.35644 2.41211-3.85937.686523-1.52149.686523-3.20996 0-2.15235-1.001953-3.48829-1.001953-1.33593-2.634765-1.33593-2.059571 0-3.191407 1.42871-1.113281 1.41015-1.113281 4.08203h-3.28418q0-3.72949 2.041016-6.03027 2.041016-2.30079 5.547852-2.30079 3.228515 0 5.083984 1.98536 1.855469 1.96679 1.855469 5.25097 0 4.00782-4.174805 9.48145l-6.011719 7.86719h11.188477z"/><path d="m55.495455 218.25839q0 5.97461-1.744141 8.94336-1.74414 2.9502-5.473633 2.9502-3.618164 0-5.399414-2.83887-1.78125-2.83887-1.855468-8.53516v-4.63867q0-5.91894 1.74414-8.83203 1.762695-2.91309 5.473633-2.91309 3.655273 0 5.399414 2.76465 1.762695 2.76465 1.855469 8.36817zm-3.28418-4.69433q0-4.28614-.946289-6.3086-.946289-2.04101-3.024414-2.04101-2.022461 0-2.96875 2.0039-.946289 1.98535-.983398 6.01172v5.56641q0 4.26758.983398 6.41992.983398 2.13379 3.005859 2.13379 2.003907 0 2.950196-2.02246.946289-2.02246.983398-6.17871z"/><path d="m74.940767 229.78085h-15.103515v-2.46777l7.700195-10.20508q1.744141-2.35644 2.412109-3.85937.686524-1.52149.686524-3.20996 0-2.15235-1.001953-3.48829-1.001953-1.33593-2.634766-1.33593-2.05957 0-3.191406 1.42871-1.113281 1.41015-1.113281 4.08203h-3.28418q0-3.72949 2.041015-6.03027 2.041016-2.30079 5.547852-2.30079 3.228516 0 5.083984 1.98536 1.855469 1.96679 1.855469 5.25097 0 4.00782-4.174805 9.48145l-6.011718 7.86719h11.188476z"/><path d="m93.050142 218.25839q0 5.97461-1.74414 8.94336-1.744141 2.9502-5.473633 2.9502-3.618164 0-5.399414-2.83887-1.78125-2.83887-1.855469-8.53516v-4.63867q0-5.91894 1.744141-8.83203 1.762695-2.91309 5.473632-2.91309 3.655274 0 5.399415 2.76465 1.762695 2.76465 1.855468 8.36817zm-3.284179-4.69433q0-4.28614-.946289-6.3086-.94629-2.04101-3.024415-2.04101-2.02246 0-2.96875 2.0039-.946289 1.98535-.983398 6.01172v5.56641q0 4.26758.983398 6.41992.983399 2.13379 3.00586 2.13379 2.003906 0 2.950195-2.02246.946289-2.02246.983399-6.17871z"/></g></g></g></svg>