<?xml version="1.0" encoding="UTF-8"?>
<!-- Generator: Adobe Illustrator 19.2.1, SVG Export Plug-In . SVG Version: 6.00 Build 0)  -->
<svg version="1.1" id="Calque_1" xmlns="http://www.w3.org/2000/svg" xmlns:xlink="http://www.w3.org/1999/xlink" x="0px" y="0px" viewBox="0 0 192 173.5" style="enable-background:new 0 0 192 173.5;" xml:space="preserve">
<style type="text/css">
	.st0{fill-rule:evenodd;clip-rule:evenodd;}
	.st1{fill-rule:evenodd;clip-rule:evenodd;fill:#81A61B;}
	.st2{fill:#81A61B;}
	.st3{fill-rule:evenodd;clip-rule:evenodd;fill:#FFFFFF;}
	.st4{fill:#FFFFFF;}
	.st5{fill:#FFFFFF;stroke:#FF0000;}
</style>
<g>
	<g>
		<g>
			<path class="st0" d="M-144.1-186.7c1.5,0.4,4.7,0.4,6.2,0v-6.5h3.8v6.5c1.5,0.4,4.7,0.4,6.2,0v-6.5h3.8v22.6c0,7.4,0,16.8,0,22.3     c0,4-2.8,7.7-4.8,11c-5.9,9.7-18.4,24.4-20.4,26.4c-2,2-4.3,4.3-4.3,4.3s-4.8,4.8-8.6,5.8c8-8.9,14.1-22,14.2-39.1     c0.1-16.8-0.1-35.8,0-53.3h3.8V-186.7z"/>
			<path class="st1" d="M-124-131.7c3-7.8,9.2-12.5,19-13.4c1.1-0.1,3.6,0,3.6,0c7.1,0.4,13.6,4.3,19,10.6c4.1-6,10.5-9.7,19.7-10.6     c1.3-0.1,2.4,0,2.4,0c14.5,1.6,23.4,12.3,23.3,23.8c0,1.7,0,35.5,0,35.5c-1,3.8-8.5,3.8-8.6-0.7c-0.2-11.5,0.3-23.7-0.2-34.8     c-0.7-8.9-5.8-13.1-14.2-14.6c-1.4-0.2-3.7-0.2-4.8,0c-7.6,1.4-12,6.4-13.2,14.4c-0.6,11-0.1,23.1-0.2,34.6c0.2,5-7.8,5.2-8.6,1     v-30.7c0-11.1-4.4-17.8-14.2-19.2c-2.3-0.2-2.6-0.2-4.6,0c-11.9,1.4-14.7,11.8-14.2,25.7C-121.6-117.2-123.1-124.1-124-131.7"/>
			<path class="st0" d="M-124-131.8c0.9,7.6,2.4,14.6,4.1,21.4c2.8,10.3,6.8,19.3,11.8,27.4h-12h-42.5c-9.6-0.2-16.4-3.7-21.4-7.9     c-5-4.2-10.4-13.8-10.3-23c-0.2-13.3,9-22.1,10.8-23.5c3.9-3.2,10-6.8,18.7-7.4c0,0,1.5-0.1,2.9,0c4.5,0.5,10.5,0.9,10.6,5.8     c0,2.8-2.3,4.8-6.2,4.8c-3,0-1.9,0-7,0.2c-12.7,0.6-20.1,10.8-19,22.6c1,10.3,11.3,20.9,25.2,17.3c6.1-1.6,16.7-11.7,17.8-13     C-133.7-114.1-128.8-122.9-124-131.8"/>
		</g>
	</g>
	<text transform="matrix(1 0 0 1 -194.9736 -52.732)"><tspan x="0" y="0" style="font-family:'Comfortaa'; font-size:35.8456px;">dark</tspan><tspan x="81.2" y="0" class="st2" style="font-family:'Comfortaa'; font-size:35.8456px;">mira</tspan></text>
</g>
<g>
	<g>
		<g>
			<path class="st3" d="M65.9-186.7c1.5,0.4,4.7,0.4,6.2,0v-6.5H76v6.5c1.5,0.4,4.7,0.4,6.2,0v-6.5H86v22.6c0,7.4,0,16.8,0,22.3     c0,4-2.8,7.7-4.8,11c-5.9,9.7-18.4,24.4-20.4,26.4c-2,2-4.3,4.3-4.3,4.3s-4.8,4.8-8.6,5.8c8-8.9,14.1-22,14.2-39.1     c0.1-16.8-0.1-35.8,0-53.3h3.8V-186.7z"/>
			<path class="st1" d="M86-131.7c3-7.8,9.2-12.5,19-13.4c1.1-0.1,3.6,0,3.6,0c7.1,0.4,13.6,4.3,19,10.6c4.1-6,10.5-9.7,19.7-10.6     c1.3-0.1,2.4,0,2.4,0c14.5,1.6,23.4,12.3,23.3,23.8c0,1.7,0,35.5,0,35.5c-1,3.8-8.5,3.8-8.6-0.7c-0.2-11.5,0.3-23.7-0.2-34.8     c-0.7-8.9-5.8-13.1-14.2-14.6c-1.4-0.2-3.7-0.2-4.8,0c-7.6,1.4-12,6.4-13.2,14.4c-0.6,11-0.1,23.1-0.2,34.6c0.2,5-7.8,5.2-8.6,1     v-30.7c0-11.1-4.4-17.8-14.2-19.2c-2.3-0.2-2.6-0.2-4.6,0c-11.9,1.4-14.7,11.8-14.2,25.7C88.4-117.2,86.9-124.1,86-131.7"/>
			<path class="st3" d="M86-131.8c0.9,7.6,2.4,14.6,4.1,21.4c2.8,10.3,6.8,19.3,11.8,27.4h-12H47.4C37.8-83.2,31-86.7,26-91     c-5-4.2-10.4-13.8-10.3-23c-0.2-13.3,9-22.1,10.8-23.5c3.9-3.2,10-6.8,18.7-7.4c0,0,1.5-0.1,2.9,0c4.5,0.5,10.5,0.9,10.6,5.8     c0,2.8-2.3,4.8-6.2,4.8c-3,0-1.9,0-7,0.2c-12.7,0.6-20.1,10.8-19,22.6c1,10.3,11.3,20.9,25.2,17.3c6.1-1.6,16.7-11.7,17.8-13     C76.3-114.1,81.2-122.9,86-131.8"/>
		</g>
	</g>
	<text transform="matrix(1 0 0 1 15.0264 -52.732)"><tspan x="0" y="0" class="st4" style="font-family:'Comfortaa'; font-size:35.8456px;">dark</tspan><tspan x="81.2" y="0" class="st2" style="font-family:'Comfortaa'; font-size:35.8456px;">mira</tspan></text>
</g>
<g>
	<g>
		<g>
			<path class="st0" d="M279.4-178.1c1.5,0.4,4.7,0.4,6.2,0v-6.5h3.8v6.5c1.5,0.4,4.7,0.4,6.2,0v-6.5h3.8v22.6c0,7.4,0,16.8,0,22.3     c0,4-2.8,7.7-4.8,11c-5.9,9.7-18.4,24.4-20.4,26.4c-2,2-4.3,4.3-4.3,4.3s-4.8,4.8-8.6,5.8c8-8.9,14.1-22,14.2-39.1     c0.1-16.8-0.1-35.8,0-53.3h3.8V-178.1z"/>
			<path class="st1" d="M299.6-123.1c3-7.8,9.2-12.5,19-13.4c1.1-0.1,3.6,0,3.6,0c7.1,0.4,13.6,4.3,19,10.6     c4.1-6,10.5-9.7,19.7-10.6c1.3-0.1,2.4,0,2.4,0c14.5,1.6,23.4,12.3,23.3,23.8c0,1.7,0,35.5,0,35.5c-1,3.8-8.5,3.8-8.6-0.7     c-0.2-11.5,0.3-23.7-0.2-34.8c-0.7-8.9-5.8-13.1-14.2-14.6c-1.4-0.2-3.7-0.2-4.8,0c-7.6,1.4-12,6.4-13.2,14.4     c-0.6,11-0.1,23.1-0.2,34.6c0.2,5-7.8,5.2-8.6,1v-30.7c0-11.1-4.4-17.8-14.2-19.2c-2.3-0.2-2.6-0.2-4.6,0     c-11.9,1.4-14.7,11.8-14.2,25.7C302-108.6,300.5-115.5,299.6-123.1"/>
			<path class="st0" d="M299.6-123.2c0.9,7.6,2.4,14.6,4.1,21.4c2.8,10.3,6.8,19.3,11.8,27.4h-12H261c-9.6-0.2-16.4-3.7-21.4-7.9     c-5-4.2-10.4-13.8-10.3-23c-0.2-13.3,9-22.1,10.8-23.5c3.9-3.2,10-6.8,18.7-7.4c0,0,1.5-0.1,2.9,0c4.5,0.5,10.5,0.9,10.6,5.8     c0,2.8-2.3,4.8-6.2,4.8c-3,0-1.9,0-7,0.2c-12.7,0.6-20.1,10.8-19,22.6c1,10.3,11.3,20.9,25.2,17.3c6.1-1.6,16.7-11.7,17.8-13     C289.9-105.5,294.8-114.3,299.6-123.2"/>
		</g>
	</g>
	<text transform="matrix(1 0 0 1 397.229 -73.4699)"><tspan x="0" y="0" style="font-family:'Comfortaa'; font-size:142.4557px;">dark</tspan><tspan x="322.8" y="0" class="st2" style="font-family:'Comfortaa'; font-size:142.4557px;">mira</tspan></text>
</g>
<g>
	<g>
		<g>
			<path class="st5" d="M1252.1-118.2c0.1-14.4-11.1-26-26.8-27.8c0,0-0.1,0-0.1,0c-0.1,0-1.4-0.1-3,0c0,0-0.1,0-0.1,0     c-8.1,0.7-14.7,3.6-19.5,8.5c-5.6-5.3-11.9-8.2-18.5-8.5c-0.7,0-2.9-0.2-4.3,0c-6.4,0.6-11.6,2.7-15.6,6.2     c0.7-1.7,1.1-3.5,1.1-5.4c0-3.7,0-9.1,0-14.4l0-7.9v-22.6c0-2.2-1.8-4-4-4h-3.8c-1.3,0-2.4,0.6-3.1,1.5c-0.7-0.9-1.9-1.5-3.1-1.5     h-3.8c-1.3,0-2.4,0.6-3.1,1.5c-0.7-0.9-1.9-1.5-3.1-1.5h-3.8c-2.2,0-4,1.8-4,4c0,8.4,0,17.2,0,25.8c0,6.9,0,14,0,20.7     c-2.8-1.5-6.3-1.9-8.8-2.1l-0.7-0.1c-0.1,0-0.1,0-0.2,0c-1.6-0.1-3.2,0-3.4,0c-7.8,0.6-15,3.4-20.9,8.3     c-3.6,2.7-12.5,12.7-12.3,26.6c-0.1,10.4,5.8,21,11.7,26.1c2.3,1.9,4.7,3.6,7.3,4.9c-0.9,1-1.5,2.3-1.5,3.7v3.3     c-1-0.2-2-0.3-3-0.3c-3.8,0-7.1,1.4-9.8,4c-2.7,2.7-4,6-4,9.8c0,3.8,1.4,7.1,4,9.8c2.7,2.7,6,4,9.8,4c3.8,0,7.1-1.4,9.8-4     c0.5-0.5,1-1.1,1.4-1.7c0.4,0.6,0.9,1.2,1.4,1.7c2.7,2.7,6,4,9.8,4c1.9,0,3.6-0.3,5.3-1c0.9,0.7,2,1,3.1,1c1,0,2-0.3,2.8-0.8     c0.8,0.5,1.8,0.8,2.8,0.8c1.4,0,2.8-0.6,3.8-1.6c1-1,1.6-2.4,1.6-3.8h6c0,1.4,0.6,2.8,1.6,3.8c1,1,2.4,1.6,3.8,1.6     s2.8-0.6,3.8-1.6c1-1,1.6-2.4,1.6-3.8v-1.5l4.6,5.2c0.1,0.1,0.1,0.2,0.2,0.2c1,1,2.4,1.5,3.8,1.5c1,0,2-0.3,2.8-0.8     c0.8,0.5,1.8,0.8,2.8,0.8c1.4,0,2.8-0.6,3.8-1.6c1-1,1.6-2.4,1.6-3.8h1.8c0,1.4,0.6,2.8,1.6,3.8c1,1,2.4,1.6,3.8,1.6     s2.8-0.6,3.8-1.6c1-1,1.6-2.4,1.6-3.8h1.8c0,1.4,0.6,2.8,1.6,3.8c1,1,2.4,1.6,3.8,1.6c1.3,0,2.5-0.5,3.5-1.3     c1,0.8,2.2,1.3,3.5,1.3c1.3,0,2.5-0.5,3.5-1.3c1,0.8,2.2,1.3,3.5,1.3c1.4,0,2.8-0.6,3.8-1.6c1-1,1.6-2.4,1.6-3.8     c0,0,7.4-1.3,10,1.4c2.7,2.7,6,4,9.8,4c1.9,0,3.6-0.3,5.3-1c0.9,0.7,2,1,3.1,1c1.4,0,2.8-0.6,3.8-1.6c1-1,1.6-2.4,1.6-3.8v-8.4     C1252.5-63.2,1252.1-118.2,1252.1-118.2z"/>
			<path class="st0" d="M1141.1-183.6c1.5,0.4,4.7,0.4,6.2,0v-6.5h3.8v6.5c1.5,0.4,4.7,0.4,6.2,0v-6.5h3.8v22.6c0,7.4,0,16.8,0,22.3     c0,4-2.8,7.7-4.8,11c-5.9,9.7-18.4,24.4-20.4,26.4c-2,2-4.3,4.3-4.3,4.3s-4.8,4.8-8.6,5.8c8-8.9,14.1-22,14.2-39.1     c0.1-16.8-0.1-35.8,0-53.3h3.8V-183.6z"/>
			<path class="st1" d="M1161.3-128.6c3-7.8,9.2-12.5,19-13.4c1.1-0.1,3.6,0,3.6,0c7.1,0.4,13.6,4.3,19,10.6     c4.1-6,10.5-9.7,19.7-10.6c1.3-0.1,2.4,0,2.4,0c14.5,1.6,23.4,12.3,23.3,23.8c0,1.7,0,35.5,0,35.5c-1,3.8-8.5,3.8-8.6-0.7     c-0.2-11.5,0.3-23.7-0.2-34.8c-0.7-8.9-5.8-13.1-14.2-14.6c-1.4-0.2-3.7-0.2-4.8,0c-7.6,1.4-12,6.4-13.2,14.4     c-0.6,11-0.1,23.1-0.2,34.6c0.2,5-7.8,5.2-8.6,1v-30.7c0-11.1-4.4-17.8-14.2-19.2c-2.3-0.2-2.6-0.2-4.6,0     c-11.9,1.4-14.7,11.8-14.2,25.7C1163.6-114,1162.1-121,1161.3-128.6"/>
			<path class="st0" d="M1161.3-128.6c0.9,7.6,2.4,14.6,4.1,21.4c2.8,10.3,6.8,19.3,11.8,27.4h-12h-42.5c-9.6-0.2-16.4-3.7-21.4-7.9     c-5-4.2-10.4-13.8-10.3-23c-0.2-13.3,9-22.1,10.8-23.5c3.9-3.2,10-6.8,18.7-7.4c0,0,1.5-0.1,2.9,0c4.5,0.5,10.5,0.9,10.6,5.8     c0,2.8-2.3,4.8-6.2,4.8c-3,0-1.9,0-7,0.2c-12.7,0.6-20.1,10.8-19,22.6c1,10.3,11.3,20.9,25.2,17.3c6.1-1.6,16.7-11.7,17.8-13     C1151.6-111,1156.4-119.8,1161.3-128.6"/>
			<g>
				<path d="M1108.5-76.2c0-0.4,0.1-0.7,0.4-1c0.3-0.3,0.6-0.4,1-0.4c0.4,0,0.7,0.1,1,0.4c0.3,0.3,0.4,0.6,0.4,1v16.8      c0,2.7-1,5-2.9,6.9c-1.9,1.9-4.2,2.9-6.9,2.9s-5-1-6.9-2.9c-1.9-1.9-2.9-4.2-2.9-6.9s1-5,2.9-6.9c1.9-1.9,4.2-2.9,6.9-2.9      s5,1,6.9,2.9c0,0,0,0,0.1,0.1V-76.2z M1108.5-59.4c0-1.9-0.7-3.6-2-5c-1.4-1.4-3-2-5-2c-1.9,0-3.6,0.7-5,2c-1.4,1.4-2,3-2,5      c0,1.9,0.7,3.6,2,5c1.4,1.4,3,2,5,2c1.9,0,3.6-0.7,5-2C1107.8-55.8,1108.5-57.5,1108.5-59.4z"/>
				<path d="M1130.9-52.5c-2,2-4.3,2.9-7,2.9c-2.7,0-5-1-6.9-2.9c-1.9-1.9-2.9-4.2-2.9-6.9s1-5,2.9-6.9c1.9-1.9,4.2-2.9,6.9-2.9      c2.7,0,5,1,6.9,2.9c1.9,1.9,2.9,4.2,2.9,6.9v8.4c0,0.4-0.1,0.7-0.4,1s-0.6,0.4-1,0.4c-0.4,0-0.7-0.1-1-0.4      c-0.3-0.3-0.4-0.6-0.4-1V-52.5z M1123.9-66.4c-1.9,0-3.6,0.7-5,2c-1.4,1.4-2,3-2,5c0,1.9,0.7,3.6,2,5c1.4,1.4,3,2,5,2      c1.9,0,3.6-0.7,5-2c1.4-1.4,2-3,2-5c0-1.9-0.7-3.6-2-5C1127.5-65.7,1125.8-66.4,1123.9-66.4z"/>
				<path d="M1136.5-67.8c0-0.4,0.1-0.7,0.4-1c0.3-0.3,0.6-0.4,1-0.4c0.4,0,0.7,0.1,1,0.4c0.3,0.3,0.4,0.6,0.4,1v1.5      c2-2,4.3-2.9,7-2.9c1.4,0,2.6,0.2,3.8,0.7c0.2,0.1,0.4,0.2,0.6,0.4c0.3,0.3,0.4,0.6,0.4,1c0,0.4-0.1,0.7-0.4,1      c-0.3,0.3-0.6,0.4-1,0.4c-0.2,0-0.4,0-0.6-0.1c-0.8-0.4-1.7-0.5-2.7-0.5c-1.9,0-3.6,0.7-5,2c-1.4,1.4-2,3-2,5v8.4      c0,0.4-0.1,0.7-0.4,1c-0.3,0.3-0.6,0.4-1,0.4c-0.4,0-0.7-0.1-1-0.4c-0.3-0.3-0.4-0.6-0.4-1V-67.8z"/>
				<path d="M1156.1-61.3l11.8-7.7c0.2-0.1,0.5-0.2,0.8-0.2c0.4,0,0.7,0.1,1,0.4c0.3,0.3,0.4,0.6,0.4,1c0,0.4-0.1,0.7-0.4,1      c-0.1,0.1-0.1,0.1-0.2,0.2l-8.1,5.3l8.3,9.4c0.3,0.3,0.4,0.6,0.4,1c0,0.4-0.1,0.7-0.4,1c-0.3,0.3-0.6,0.4-1,0.4      c-0.4,0-0.7-0.1-1-0.4l-8.7-9.8l-2.9,1.9v6.9c0,0.4-0.1,0.7-0.4,1c-0.3,0.3-0.6,0.4-1,0.4c-0.4,0-0.7-0.1-1-0.4      c-0.3-0.3-0.4-0.6-0.4-1v-25.2c0-0.4,0.1-0.7,0.4-1c0.3-0.3,0.6-0.4,1-0.4c0.4,0,0.7,0.1,1,0.4c0.3,0.3,0.4,0.6,0.4,1V-61.3z"/>
				<path class="st2" d="M1175.7-51c0,0.4-0.1,0.7-0.4,1c-0.3,0.3-0.6,0.4-1,0.4c-0.4,0-0.7-0.1-1-0.4s-0.4-0.6-0.4-1v-16.8      c0-0.4,0.1-0.7,0.4-1c0.3-0.3,0.6-0.4,1-0.4c0.4,0,0.7,0.1,1,0.4c0.3,0.3,0.4,0.6,0.4,1v0.4c1.4-1.2,3-1.8,4.9-1.8      c2.1,0,3.9,0.8,5.4,2.3c0.3,0.3,0.6,0.6,0.9,1c0.3-0.3,0.5-0.7,0.9-1c1.5-1.5,3.3-2.3,5.4-2.3s3.9,0.8,5.4,2.3      c1.5,1.5,2.3,3.3,2.3,5.4V-51c0,0.4-0.1,0.7-0.4,1c-0.3,0.3-0.6,0.4-1,0.4c-0.4,0-0.7-0.1-1-0.4c-0.3-0.3-0.4-0.6-0.4-1v-10.5      c0-1.4-0.5-2.5-1.4-3.5c-1-1-2.1-1.4-3.5-1.4s-2.5,0.5-3.5,1.4c-1,1-1.4,2.1-1.4,3.5V-51c0,0.4-0.1,0.7-0.4,1      c-0.3,0.3-0.6,0.4-1,0.4c-0.4,0-0.7-0.1-1-0.4c-0.3-0.3-0.4-0.6-0.4-1v-10.5c0-1.4-0.5-2.5-1.4-3.5c-1-1-2.1-1.4-3.5-1.4      c-1.4,0-2.5,0.5-3.5,1.4c-1,1-1.4,2.1-1.4,3.5V-51z"/>
				<path class="st2" d="M1208.2-73.4c0,0.5-0.2,0.9-0.5,1.2c-0.3,0.3-0.8,0.5-1.2,0.5c-0.5,0-0.9-0.2-1.2-0.5      c-0.3-0.3-0.5-0.8-0.5-1.2c0-0.5,0.2-0.9,0.5-1.2c0.3-0.3,0.8-0.5,1.2-0.5c0.5,0,0.9,0.2,1.2,0.5      C1208.1-74.3,1208.2-73.9,1208.2-73.4z M1205.1-67.8c0-0.4,0.1-0.7,0.4-1c0.3-0.3,0.6-0.4,1-0.4c0.4,0,0.7,0.1,1,0.4      c0.3,0.3,0.4,0.6,0.4,1V-51c0,0.4-0.1,0.7-0.4,1s-0.6,0.4-1,0.4c-0.4,0-0.7-0.1-1-0.4c-0.3-0.3-0.4-0.6-0.4-1V-67.8z"/>
				<path class="st2" d="M1212.1-67.8c0-0.4,0.1-0.7,0.4-1c0.3-0.3,0.6-0.4,1-0.4c0.4,0,0.7,0.1,1,0.4c0.3,0.3,0.4,0.6,0.4,1v1.5      c2-2,4.3-2.9,7-2.9c1.4,0,2.6,0.2,3.8,0.7c0.2,0.1,0.4,0.2,0.6,0.4c0.3,0.3,0.4,0.6,0.4,1c0,0.4-0.1,0.7-0.4,1      c-0.3,0.3-0.6,0.4-1,0.4c-0.2,0-0.4,0-0.6-0.1c-0.8-0.4-1.7-0.5-2.7-0.5c-1.9,0-3.6,0.7-5,2c-1.4,1.4-2,3-2,5v8.4      c0,0.4-0.1,0.7-0.4,1s-0.6,0.4-1,0.4c-0.4,0-0.7-0.1-1-0.4c-0.3-0.3-0.4-0.6-0.4-1V-67.8z"/>
				<path class="st2" d="M1245.7-52.5c-2,2-4.3,2.9-7,2.9c-2.7,0-5-1-6.9-2.9c-1.9-1.9-2.9-4.2-2.9-6.9s1-5,2.9-6.9      c1.9-1.9,4.2-2.9,6.9-2.9c2.7,0,5,1,6.9,2.9c1.9,1.9,2.9,4.2,2.9,6.9v8.4c0,0.4-0.1,0.7-0.4,1c-0.3,0.3-0.6,0.4-1,0.4      c-0.4,0-0.7-0.1-1-0.4c-0.3-0.3-0.4-0.6-0.4-1V-52.5z M1238.7-66.4c-1.9,0-3.6,0.7-5,2c-1.4,1.4-2,3-2,5c0,1.9,0.7,3.6,2,5      c1.4,1.4,3,2,5,2c1.9,0,3.6-0.7,5-2c1.4-1.4,2-3,2-5c0-1.9-0.7-3.6-2-5C1242.3-65.7,1240.6-66.4,1238.7-66.4z"/>
			</g>
		</g>
	</g>
</g>
<g>
	<g>
		<g>
			<path class="st3" d="M69.2,22.9c1.5,0.4,4.7,0.4,6.2,0v-6.5h3.8v6.5c1.5,0.4,4.7,0.4,6.2,0v-6.5h3.8V39c0,7.4,0,16.8,0,22.3     c0,4-2.8,7.7-4.8,11c-5.9,9.7-18.4,24.4-20.4,26.4c-2,2-4.3,4.3-4.3,4.3s-4.8,4.8-8.6,5.8c8-8.9,14.1-22,14.2-39.1     c0.1-16.8-0.1-35.8,0-53.3h3.8V22.9z"/>
			<path class="st1" d="M89.3,77.9c3-7.8,9.2-12.5,19-13.4c1.1-0.1,3.6,0,3.6,0c7.1,0.4,13.6,4.3,19,10.6c4.1-6,10.5-9.7,19.7-10.6     c1.3-0.1,2.4,0,2.4,0c14.5,1.6,23.4,12.3,23.3,23.8c0,1.7,0,35.5,0,35.5c-1,3.8-8.5,3.8-8.6-0.7c-0.2-11.5,0.3-23.7-0.2-34.8     c-0.7-8.9-5.8-13.1-14.2-14.6c-1.4-0.2-3.7-0.2-4.8,0c-7.6,1.4-12,6.4-13.2,14.4c-0.6,11-0.1,23.1-0.2,34.6c0.2,5-7.8,5.2-8.6,1     V92.8c0-11.1-4.4-17.8-14.2-19.2c-2.3-0.2-2.6-0.2-4.6,0C95.7,75,92.8,85.4,93.4,99.3C91.7,92.5,90.2,85.5,89.3,77.9"/>
			<path class="st3" d="M89.4,77.9c0.9,7.6,2.4,14.6,4.1,21.4c2.8,10.3,6.8,19.3,11.8,27.4h-12H50.7c-9.6-0.2-16.4-3.7-21.4-7.9     c-5-4.2-10.4-13.8-10.3-23c-0.2-13.3,9-22.1,10.8-23.5c3.9-3.2,10-6.8,18.7-7.4c0,0,1.5-0.1,2.9,0c4.5,0.5,10.5,0.9,10.6,5.8     c0,2.8-2.3,4.8-6.2,4.8c-3,0-1.9,0-7,0.2c-12.7,0.6-20.1,10.8-19,22.6c1,10.3,11.3,20.9,25.2,17.3c6.1-1.6,16.7-11.7,17.8-13     C79.6,95.5,84.5,86.7,89.4,77.9"/>
		</g>
	</g>
	<g>
		<path class="st4" d="M36.5,130.3c0-0.4,0.1-0.7,0.4-1c0.3-0.3,0.6-0.4,1-0.4c0.4,0,0.7,0.1,1,0.4s0.4,0.6,0.4,1v16.8    c0,2.7-1,5-2.9,6.9c-1.9,1.9-4.2,2.9-6.9,2.9s-5-1-6.9-2.9c-1.9-1.9-2.9-4.2-2.9-6.9s1-5,2.9-6.9c1.9-1.9,4.2-2.9,6.9-2.9    s5,1,6.9,2.9c0,0,0,0,0.1,0.1V130.3z M36.5,147.1c0-1.9-0.7-3.6-2-5c-1.4-1.4-3-2-5-2c-1.9,0-3.6,0.7-5,2s-2,3-2,5    c0,1.9,0.7,3.6,2,5s3,2,5,2c1.9,0,3.6-0.7,5-2C35.9,150.7,36.5,149,36.5,147.1z"/>
		<path class="st4" d="M58.9,154c-2,2-4.3,2.9-7,2.9s-5-1-6.9-2.9c-1.9-1.9-2.9-4.2-2.9-6.9s1-5,2.9-6.9c1.9-1.9,4.2-2.9,6.9-2.9    s5,1,6.9,2.9c1.9,1.9,2.9,4.2,2.9,6.9v8.4c0,0.4-0.1,0.7-0.4,1s-0.6,0.4-1,0.4c-0.4,0-0.7-0.1-1-0.4c-0.3-0.3-0.4-0.6-0.4-1V154z     M51.9,140.1c-1.9,0-3.6,0.7-5,2s-2,3-2,5c0,1.9,0.7,3.6,2,5s3,2,5,2c1.9,0,3.6-0.7,5-2c1.4-1.4,2-3,2-5c0-1.9-0.7-3.6-2-5    C55.5,140.8,53.9,140.1,51.9,140.1z"/>
		<path class="st4" d="M64.5,138.7c0-0.4,0.1-0.7,0.4-1s0.6-0.4,1-0.4s0.7,0.1,1,0.4c0.3,0.3,0.4,0.6,0.4,1v1.5c2-2,4.3-2.9,7-2.9    c1.4,0,2.6,0.2,3.8,0.7c0.2,0.1,0.4,0.2,0.6,0.4c0.3,0.3,0.4,0.6,0.4,1c0,0.4-0.1,0.7-0.4,1c-0.3,0.3-0.6,0.4-1,0.4    c-0.2,0-0.4,0-0.6-0.1c-0.8-0.4-1.7-0.5-2.7-0.5c-1.9,0-3.6,0.7-5,2s-2,3-2,5v8.4c0,0.4-0.1,0.7-0.4,1c-0.3,0.3-0.6,0.4-1,0.4    s-0.7-0.1-1-0.4s-0.4-0.6-0.4-1V138.7z"/>
		<path class="st4" d="M84.1,145.2l11.8-7.7c0.2-0.1,0.5-0.2,0.8-0.2c0.4,0,0.7,0.1,1,0.4c0.3,0.3,0.4,0.6,0.4,1    c0,0.4-0.1,0.7-0.4,1c-0.1,0.1-0.1,0.1-0.2,0.2l-8.1,5.3l8.3,9.4c0.3,0.3,0.4,0.6,0.4,1c0,0.4-0.1,0.7-0.4,1    c-0.3,0.3-0.6,0.4-1,0.4s-0.7-0.1-1-0.4l-8.7-9.8l-2.9,1.9v6.9c0,0.4-0.1,0.7-0.4,1c-0.3,0.3-0.6,0.4-1,0.4s-0.7-0.1-1-0.4    s-0.4-0.6-0.4-1v-25.2c0-0.4,0.1-0.7,0.4-1s0.6-0.4,1-0.4s0.7,0.1,1,0.4c0.3,0.3,0.4,0.6,0.4,1V145.2z"/>
		<path class="st2" d="M103.8,155.5c0,0.4-0.1,0.7-0.4,1s-0.6,0.4-1,0.4c-0.4,0-0.7-0.1-1-0.4s-0.4-0.6-0.4-1v-16.8    c0-0.4,0.1-0.7,0.4-1s0.6-0.4,1-0.4c0.4,0,0.7,0.1,1,0.4s0.4,0.6,0.4,1v0.4c1.4-1.2,3-1.8,4.9-1.8c2.1,0,3.9,0.8,5.4,2.3    c0.3,0.3,0.6,0.6,0.9,1c0.3-0.3,0.5-0.7,0.9-1c1.5-1.5,3.3-2.3,5.4-2.3s3.9,0.8,5.4,2.3c1.5,1.5,2.3,3.3,2.3,5.4v10.5    c0,0.4-0.1,0.7-0.4,1s-0.6,0.4-1,0.4c-0.4,0-0.7-0.1-1-0.4c-0.3-0.3-0.4-0.6-0.4-1V145c0-1.4-0.5-2.5-1.4-3.5s-2.1-1.4-3.5-1.4    s-2.5,0.5-3.5,1.4c-1,1-1.4,2.1-1.4,3.5v10.5c0,0.4-0.1,0.7-0.4,1c-0.3,0.3-0.6,0.4-1,0.4s-0.7-0.1-1-0.4c-0.3-0.3-0.4-0.6-0.4-1    V145c0-1.4-0.5-2.5-1.4-3.5c-1-1-2.1-1.4-3.5-1.4s-2.5,0.5-3.5,1.4s-1.4,2.1-1.4,3.5V155.5z"/>
		<path class="st2" d="M136.3,133.1c0,0.5-0.2,0.9-0.5,1.2c-0.3,0.3-0.8,0.5-1.2,0.5s-0.9-0.2-1.2-0.5c-0.3-0.3-0.5-0.8-0.5-1.2    s0.2-0.9,0.5-1.2c0.3-0.3,0.8-0.5,1.2-0.5s0.9,0.2,1.2,0.5C136.1,132.2,136.3,132.6,136.3,133.1z M133.2,138.7    c0-0.4,0.1-0.7,0.4-1c0.3-0.3,0.6-0.4,1-0.4c0.4,0,0.7,0.1,1,0.4s0.4,0.6,0.4,1v16.8c0,0.4-0.1,0.7-0.4,1s-0.6,0.4-1,0.4    c-0.4,0-0.7-0.1-1-0.4c-0.3-0.3-0.4-0.6-0.4-1V138.7z"/>
		<path class="st2" d="M140.2,138.7c0-0.4,0.1-0.7,0.4-1s0.6-0.4,1-0.4c0.4,0,0.7,0.1,1,0.4s0.4,0.6,0.4,1v1.5c2-2,4.3-2.9,7-2.9    c1.4,0,2.6,0.2,3.8,0.7c0.2,0.1,0.4,0.2,0.6,0.4c0.3,0.3,0.4,0.6,0.4,1c0,0.4-0.1,0.7-0.4,1c-0.3,0.3-0.6,0.4-1,0.4    c-0.2,0-0.4,0-0.6-0.1c-0.8-0.4-1.7-0.5-2.7-0.5c-1.9,0-3.6,0.7-5,2s-2,3-2,5v8.4c0,0.4-0.1,0.7-0.4,1s-0.6,0.4-1,0.4    c-0.4,0-0.7-0.1-1-0.4s-0.4-0.6-0.4-1V138.7z"/>
		<path class="st2" d="M173.8,154c-2,2-4.3,2.9-7,2.9c-2.7,0-5-1-6.9-2.9c-1.9-1.9-2.9-4.2-2.9-6.9s1-5,2.9-6.9s4.2-2.9,6.9-2.9    c2.7,0,5,1,6.9,2.9c1.9,1.9,2.9,4.2,2.9,6.9v8.4c0,0.4-0.1,0.7-0.4,1s-0.6,0.4-1,0.4c-0.4,0-0.7-0.1-1-0.4s-0.4-0.6-0.4-1V154z     M166.8,140.1c-1.9,0-3.6,0.7-5,2s-2,3-2,5c0,1.9,0.7,3.6,2,5s3,2,5,2c1.9,0,3.6-0.7,5-2s2-3,2-5c0-1.9-0.7-3.6-2-5    S168.7,140.1,166.8,140.1z"/>
	</g>
</g>
</svg>