<svg viewBox="0 0 130.7 171.1" xmlns="http://www.w3.org/2000/svg"><path d="m84.9 57.1c.5-.9 3.2-6.3 3.4-10.1.1-3.1-.4-6.1-1.4-8.9-1.6-4.1-4.3-7.7-7.8-10.3s-7.8-4.2-12.5-4.3c-3.1-.1-6.1.4-8.9 1.4-4.1 1.6-7.7 4.3-10.3 7.8s-4.2 7.8-4.4 12.5c-.1 2.5.3 4.9 1 7.1.5 1.7 1.3 3.3 2.1 4.8 1.3 2.3 3 4.5 4.8 6.5s3.9 4 6 5.9c2 1.7 4 3.4 5.8 5 1.4 1.2 2.6 2.4 3.7 3.6 1.7 1.7 3 3.4 3.9 4.9.4.8.7 1.5.9 2.1.2.7.3 1.3.2 1.8-.1 1.4 1 2.6 2.4 2.6 1.4.1 2.6-1 2.6-2.4 0-1-.1-2.1-.3-3.1-.5-1.7-1.3-3.4-2.3-4.9-1.6-2.3-3.7-4.6-6.1-6.8s-5-4.4-7.6-6.7c-1.8-1.6-3.5-3.2-5-4.9-2.3-2.5-4.2-5-5.4-7.5-.6-1.3-1.1-2.6-1.4-3.9s-.4-2.7-.4-4.1c.1-2.4.7-4.7 1.6-6.8 1.5-3.1 3.8-5.7 6.7-7.5s6.3-2.8 9.9-2.6c2.4.1 4.7.7 6.8 1.6 3.1 1.5 5.7 3.8 7.5 6.7s2.8 6.3 2.6 9.9c-.1 2-.9 4.9-1.7 7zm-39.5 16.2c-1.8 3.1-2.9 6.6-3 10.4-.1 3.1.4 6.1 1.4 8.9 1.6 4.1 4.3 7.7 7.8 10.3s7.8 4.2 12.5 4.3c3.1.1 6.1-.4 8.9-1.4 4.1-1.6 7.7-4.3 10.3-7.8s4.2-7.8 4.3-12.5c.1-2.5-.3-4.9-1-7.1-.5-1.7-1.3-3.3-2.1-4.8-1.3-2.3-3-4.5-4.8-6.5s-3.9-4-6-5.9c-2-1.7-4-3.4-5.8-5-1.4-1.2-2.6-2.4-3.7-3.6-1.7-1.7-3-3.4-3.9-4.9-.4-.8-.7-1.5-.9-2.1-.2-.7-.3-1.3-.2-1.8.1-1.4-1-2.6-2.4-2.6-1.4-.1-2.6 1-2.6 2.4 0 1 .1 2.1.3 3.1.4 1.7 1.3 3.4 2.3 4.9 1.6 2.3 3.7 4.6 6.1 6.8s5 4.4 7.6 6.7c1.8 1.6 3.5 3.2 5 4.9 2.3 2.5 4.2 5 5.4 7.5.6 1.3 1.1 2.6 1.4 3.9s.4 2.7.4 4.1c-.2 2.2-.8 4.5-1.7 6.5-1.5 3.1-3.8 5.7-6.7 7.5s-6.3 2.8-9.9 2.6c-2.4-.1-4.7-.7-6.8-1.6-3.1-1.5-5.7-3.8-7.5-6.7s-2.8-6.3-2.6-9.9c.1-2.4.7-4.7 1.6-6.8 0-.1.1-.2.1-.2zm10.8-4.1" fill="#d1a16e"/><path d="m0 0v102.6h4.8v-97.8h121.1v121.1h-97.6v4.8h102.4v-130.7z" fill="#d1a16e"/><g fill="#fff"><path d="m8.2 156.4c-.7-.5-1.5-.8-2.5-.8-.4 0-.8 0-1.2.1s-.8.2-1.1.5c-.3.2-.6.5-.7.9-.2.4-.3.8-.3 1.4 0 .5.1.9.4 1.2s.6.6 1.1.8c.4.2 1 .4 1.5.5.6.1 1.1.3 1.7.4.6.2 1.2.3 1.7.5.6.2 1.1.5 1.5.8.4.4.8.8 1.1 1.3s.4 1.2.4 2c0 .9-.2 1.6-.5 2.3-.4.6-.8 1.1-1.4 1.5s-1.2.7-1.9.9-1.4.3-2 .3c-.8 0-1.6-.1-2.3-.3s-1.4-.6-1.9-1.1c-.6-.5-1-1.1-1.3-1.8s-.5-1.6-.5-2.6h1.9c0 .7.1 1.3.4 1.8.2.5.6.9 1 1.2s.9.6 1.4.7c.5.2 1.1.2 1.6.2.4 0 .9 0 1.3-.1s.9-.3 1.2-.5c.4-.2.6-.5.9-.9.2-.4.3-.9.3-1.5s-.1-1-.4-1.4-.6-.6-1.1-.9c-.4-.2-1-.4-1.5-.5-.6-.1-1.1-.3-1.7-.4s-1.2-.3-1.7-.5c-.6-.2-1.1-.4-1.5-.8-.4-.3-.8-.7-1.1-1.2s-.4-1.1-.4-1.9.2-1.6.5-2.2.7-1.1 1.2-1.5 1.1-.7 1.7-.9 1.3-.3 2-.3c.8 0 1.5.1 2.1.3s1.2.5 1.7 1c.5.4.9 1 1.2 1.6.3.7.4 1.4.5 2.4h-2.1c-.1-1.1-.5-2-1.2-2.5"/><path clip-rule="evenodd" d="m16.4 154.1h2v16.6h-2z" fill-rule="evenodd"/><path d="m25.8 154.1 7.8 13.5v-13.5h1.9v16.6h-2.2l-7.7-13.3v13.3h-1.9v-16.6zm23.8 16.4c-.9.4-1.7.6-2.6.6-1.1 0-2.1-.2-3-.7s-1.6-1.1-2.2-1.8c-.6-.8-1.1-1.7-1.4-2.7s-.5-2.1-.5-3.1c0-1.2.1-2.4.4-3.4.3-1.1.7-2 1.3-2.9.6-.8 1.3-1.5 2.2-2s1.9-.7 3.1-.7c.8 0 1.6.1 2.3.3s1.3.5 1.9 1c.6.4 1 1 1.4 1.7s.6 1.5.8 2.5h-2c-.1-.6-.3-1.2-.5-1.6-.3-.5-.6-.8-1-1.1s-.8-.5-1.3-.7c-.5-.1-1-.2-1.6-.2-.9 0-1.7.2-2.3.6s-1.2.9-1.6 1.6-.7 1.4-.9 2.3c-.2.8-.3 1.7-.3 2.6s.1 1.7.3 2.5.5 1.5 1 2.1c.4.6 1 1.1 1.6 1.5s1.4.5 2.2.5 1.5-.1 2-.4c.6-.3 1.1-.7 1.5-1.1.4-.5.7-1.1.9-1.7.2-.7.3-1.4.3-2.1h-4.7v-2.1h6.5v8.7h-1.2l-.5-2.1c-.5.9-1.2 1.5-2.1 1.9m19.2-1c-1 1.1-2.4 1.6-4.3 1.6s-3.4-.5-4.5-1.5-1.6-2.6-1.6-4.8v-10.6h2v10.6c0 1.5.4 2.6 1.1 3.4s1.7 1.1 3 1.1 2.2-.4 2.9-1.1c.7-.8 1-1.9 1-3.4v-10.6h2v10.6c-.1 2.1-.6 3.6-1.6 4.7m8.7-15.4v14.8h7.8v1.8h-9.8v-16.6zm19.1 9.8-2.5-7.7-2.5 7.7zm-1.3-9.8 5.8 16.6h-2.2l-1.6-5h-6.3l-1.7 5h-2l5.8-16.6zm16.6 7.6c.4-.1.8-.2 1.1-.5.3-.2.6-.5.7-.9.2-.4.3-.9.3-1.5 0-.8-.2-1.5-.6-2s-1.1-.8-2-.8h-4.9v5.8h4.1c.5 0 .9-.1 1.3-.1m-.4-7.6c1.4 0 2.5.4 3.3 1.2s1.2 1.8 1.2 3.2c0 1-.2 1.9-.6 2.6-.4.8-1.1 1.3-2 1.6.4.1.8.2 1 .5s.5.5.6.8c.2.3.3.6.4 1s.1.8.2 1.2c0 .4 0 .8.1 1.2 0 .4 0 .8.1 1.2s.1.8.2 1.1c.1.4.3.7.5 1h-2.2c-.1-.2-.2-.4-.3-.7 0-.3-.1-.6-.1-1v-1.2c0-.4-.1-.8-.1-1.2-.1-.4-.1-.8-.2-1.1s-.2-.7-.4-1-.4-.5-.7-.6c-.3-.2-.7-.2-1.2-.2h-4.8v7.1h-2v-16.6h7zm7.4 1.9v-1.9h11.8v1.9h-5v14.7h-1.9v-14.7z"/></g></svg>