<svg height="73" width="110" xmlns="http://www.w3.org/2000/svg"><g fill="none" fill-rule="evenodd"><path d="m6.617 21.018v12.92c0 1.214.37 1.813 1.931 1.813h1.875c2.13 0 3.124-.81 3.862-2.38l.682-1.502 1.079.312-.852 4.93h-15.194v-1.077c2.67-.567 2.812-.652 2.812-1.7v-13.316c0-1.077-.142-1.133-2.812-1.672v-1.076h9.514v1.076c-2.755.539-2.897.595-2.897 1.672m21.3 5.723c0 1.728-.994 3.74-7.583 4.048.17 2.663 1.534 4.42 3.834 4.42a4.996 4.996 0 0 0 3.493-1.502l.597.708a6.576 6.576 0 0 1 -5.425 2.975c-3.651 0-6.333-2.635-6.333-6.743-.018-3.901 3.121-7.087 7.031-7.136 3.124 0 4.374 1.898 4.374 3.238m-4.544-2.096c-2.073 0-2.982 2.21-3.067 5.043 4.515-.68 4.686-2.429 4.686-3.4a1.593 1.593 0 0 0 -1.623-1.643m10.228 12.749c-3.295 0-4.516-1.332-4.516-2.692a1.877 1.877 0 0 1 .79-1.427 1.886 1.886 0 0 1 1.612-.272l.37.453c-.853 1.473-.228 2.805 1.93 2.805 1.363-.02 2.337-.745 2.337-1.878 0-1.332-1.107-1.87-2.811-2.55-2.435-.963-3.834-2.068-3.834-4.278s1.93-4.048 4.868-4.048c3.124 0 4.516 1.474 4.516 2.748 0 1.02-.91 2.024-2.5 1.672l-.312-.453c.966-1.304.483-2.833-1.647-2.833-1.278 0-2.13.809-2.13 1.841 0 1.247 1.335 1.842 2.868 2.38 2.386.81 4.345 1.927 4.345 4.363 0 2.437-1.78 4.16-5.87 4.16m8.719-19.123h15.165l.126 4.958h-1.023l-.495-1.55c-.51-1.559-1.622-2.024-3.209-2.024h-3.947v7.002h3.89c.812 0 .88-.142 1.449-2.578h1.079v6.8h-1.08c-.567-2.352-.624-2.692-1.448-2.692h-3.89v5.751c0 1.215.369 1.814 1.93 1.814h1.875c2.13 0 3.124-.81 3.863-2.38l.681-1.502 1.08.312-.853 4.93h-15.193v-1.077c2.67-.567 2.811-.652 2.811-1.7v-13.316c0-1.077-.142-1.133-2.811-1.672zm27.718 15.44.596.71a6.58 6.58 0 0 1 -5.424 2.974c-3.652 0-6.333-2.635-6.333-6.743 0-3.995 2.953-7.14 6.815-7.14 3.04 0 4.402 1.643 4.402 2.947 0 1.076-.681 2.181-2.64 1.841l-.313-.481c.511-1.275.738-3.202-1.392-3.202s-3.067 2.493-3.067 5.525c0 3.031 1.42 5.071 3.854 5.071a4.996 4.996 0 0 0 3.494-1.501m9.943 1.87v-7.31c0-1.53-.568-2.21-1.675-2.21-1.708 0-3.152 2.663-3.152 6.686v4.364h-3.583v-17.651c0-1.049-.081-1.105-1.817-1.672v-1.076h5.537c-.137 1.133-.137 9.972-.137 10.567h.052c.913-2.238 2.56-3.768 4.869-3.768 2.028 0 3.493 1.388 3.493 4.08v6.634c0 1.246.199 1.36 2.101 1.813v1.077c-1.622.17-2.896.283-3.691.283-1.307 0-1.988-.567-1.988-1.813m12.114.663c2.386 0 3.039-2.776 3.039-5.61 0-3.087-.455-6.006-3.039-6.006-2.386 0-3.039 2.777-3.039 5.61.012 3.1.524 6.006 3.039 6.006m-.284 1.134c-3.862 0-6.56-2.55-6.56-6.517 0-4.42 2.783-7.366 7.128-7.366 3.862 0 6.56 2.55 6.56 6.516 0 4.42-2.783 7.367-7.128 7.367m12.325 0c-3.294 0-4.515-1.332-4.515-2.692a1.877 1.877 0 0 1 .785-1.42 1.886 1.886 0 0 1 1.6-.28l.37.454c-.852 1.473-.227 2.804 1.93 2.804 1.364 0 2.33-.736 2.33-1.87 0-1.331-1.108-1.87-2.812-2.55-2.414-.963-3.834-2.068-3.834-4.277 0-2.21 1.931-4.048 4.869-4.048 3.124 0 4.515 1.473 4.515 2.748 0 1.02-.909 2.024-2.499 1.672l-.312-.453c.965-1.304.482-2.834-1.648-2.834-1.278 0-2.13.81-2.13 1.842 0 1.247 1.335 1.842 2.869 2.38 2.385.81 4.345 1.926 4.345 4.363s-1.76 4.165-5.85 4.165" fill="#1d1d1b"/><g fill-rule="nonzero"><path d="m29.332 3.762c-.053.248-.194.3-.355.264s-.287-.088-.198-.4c.11-.332.165-.679.162-1.028-.182-1.398-.881-1.978-2.275-1.978-2.754 0-4.561 2.946-5.118 5.412-.427 1.895-.463 5.285 2.343 5.285 1.972 0 3.654-1.999 4.134-3.598l.198-.64h-1.646c-.27 0-.322-.087-.286-.283s.125-.284.323-.284h3.488c.198 0 .198.16.181.248-.056.268-.181.32-.379.32h-1.088l-1.235 4.557c-.056.196-.145.248-.342.212-.198-.036-.287-.16-.23-.336l.516-1.775c-.609 1.028-2.218 2.199-3.63 2.199-3.226 0-3.488-3.406-2.952-6.029.537-2.622 2.647-5.908 5.743-5.908 1.287 0 2.146.46 2.61 1.491l.285-1.031a.28.28 0 0 1 .127-.195.284.284 0 0 1 .232-.033c.084.002.16.047.204.118.043.071.047.16.01.234l-.823 3.178zm9.749 3.966a.747.747 0 0 1 -.753-.676c0-.42.57-1.063 1.698-1.936.007-.357-.132-.701-.384-.951a1.279 1.279 0 0 0 -.948-.372c-2.184-.013-4.338 4.233-4.742 5.778l-.462 1.768h2.188c.204 0 .28.114.258.299a.326.326 0 0 1 -.332.298h-4.235a.257.257 0 0 1 -.212-.08.262.262 0 0 1 -.067-.218.312.312 0 0 1 .109-.228.306.306 0 0 1 .24-.07h1.444c.44-1.769 1.131-4.448 1.131-6.296 0-.575-.058-1.1-.757-1.1a2.148 2.148 0 0 0 -1.485.588.273.273 0 0 1 -.416 0c-.146-.147-.075-.332.058-.462a2.587 2.587 0 0 1 1.864-.727c1.16 0 1.348.798 1.348 1.785a15.165 15.165 0 0 1 -.196 1.966c.758-1.546 2.471-3.91 4.281-3.91a1.888 1.888 0 0 1 1.404.579c.368.381.561.9.535 1.432-.017.857-.516 2.533-1.569 2.533zm9.542-1.207c0 2.229-1.7 5.416-4.439 5.416-1.944 0-2.735-1.522-2.735-3.265 0-2.448 1.668-5.489 4.439-5.489 1.858-.012 2.735 1.6 2.735 3.338zm-6.628 2.086c0 1.375.597 2.75 2.19 2.75 2.264 0 3.877-2.66 3.877-4.799 0-1.375-.597-2.807-2.174-2.807-2.332 0-3.893 2.701-3.893 4.856zm17.277 1.881a.31.31 0 0 1 .42-.021.278.278 0 0 1 .021.39c-.467.492-1.325 1.08-2.036 1.08-1.005 0-1.064-1.048-.84-1.818l.634-2.368c-.95 1.242-3.786 4.02-5.32 4.02-.914 0-1.137-.861-.968-1.656.168-.795 1.472-4.687 1.472-5.88 0-.331-.147-.414-.337-.414-.635 0-1.118.414-1.602.861a.32.32 0 0 1 -.42.021.282.282 0 0 1 0-.39c.466-.492 1.324-1.08 2.03-1.08a.89.89 0 0 1 .691.264c.18.183.269.435.244.688 0 1.47-1.027 4.211-1.494 6.083-.075.331-.13.936.392.936 1.644 0 5.434-3.818 5.935-5.73l.542-2.071a.298.298 0 0 1 .3-.22c.167 0 .352.091.298.31l-1.754 6.627c-.076.257-.316 1.242.223 1.242.597-.012 1.08-.435 1.569-.873zm5.499-5.668a4.21 4.21 0 0 1 3.29-1.637c1.957 0 2.881 1.617 2.881 3.36 0 2.235-1.79 5.431-4.672 5.431-1.666 0-2.498-.982-2.79-2.271l-1.515 5.615h2.398c.15 0 .204.09.204.217a.365.365 0 0 1 -.11.273.378.378 0 0 1 -.277.108h-4.102c-.183 0-.295-.074-.295-.217 0-.275.22-.381.445-.381h1.108l3.064-11.398-2.419.872a.296.296 0 0 1 -.278-.016.286.286 0 0 1 -.138-.238.374.374 0 0 1 .258-.311l2.744-.95c.275-.09.629-.053.516.38zm-.833 3.798c0 1.38.629 2.759 2.311 2.759 2.382 0 4.085-2.669 4.085-4.813 0-1.38-.629-2.816-2.29-2.816-2.461 0-4.106 2.71-4.106 4.87zm16.057.75a.39.39 0 0 1 .214-.073c.16.027.282.16.298.326a.316.316 0 0 1 -.123.236c-1.287 1.032-2.805 2.08-4.812 2.08s-3.036-1.337-3.036-3.384c.122-2.94 2.435-5.283 5.301-5.37 1.164 0 2.452.27 2.452 1.916 0 2.912-4.848 3.67-7.153 4.033.052 1.194.882 2.19 2.416 2.19 1.888 0 3.314-1.012 4.443-1.954zm-.282-4.252c0-1.285-1.093-1.338-1.904-1.338-2.432 0-4.689 2.447-4.689 4.758 1.745-.252 6.593-1.027 6.593-3.42z" fill="#1d1d1b"/><path d="m22.173 56.5c-.772 0-1.446.92-1.446 4.807-.008.255.004.51.034.764.977-.06 2.355-1.44 2.355-3.58 0-1.439-.337-1.99-.943-1.99zm21.667 7.336c0 2.144.69 3.01 1.304 3.01.546 0 .944-.586 1.088-1v-6.958c-.614.071-2.391 1.595-2.391 4.948zm38.915-8.926c-.774 0-1.448 1.047-1.448 5.491-.008.292.003.584.033.875.974-.072 2.356-1.644 2.356-4.09 0-1.647-.337-2.277-.941-2.277z" fill="#000"/><path d="m.797 40.585v31.832h109.203v-31.832zm72.576 6.706h3.345v3.543h-3.345zm-14.034 0h3.337v3.543h-3.346l.008-3.543zm-40.343 22.46h-7.926v-19.218h3.377v16.718h4.549v2.498zm2.61-5.281c.16 2.178 1.146 3.038 2.197 3.038.32.014.64-.005.957-.056v2.238c-.4.075-.805.112-1.212.112-2.258 0-5.251-1.233-5.251-7.57 0-6.566 2.767-7.515 4.552-7.515 1.685 0 3.785 1.15 3.785 4.276 0 3.707-3.53 5.369-5.029 5.485v-.008zm12.66-3.007v8.287h-3.931v-25.622h3.017c4.153 0 8.12 1.954 8.12 7.775 0 6.846-5.68 9.196-7.207 9.56zm15.524 8.287h-3.378v-1.117l-1.211 1.13c-.18.048-.367.07-.554.063-2.31 0-4.403-2.35-4.403-5.604 0-5.293 4.33-7.207 5.91-7.41v-.333c0-.993-.622-1.421-1.58-1.421a9.02 9.02 0 0 0 -2.35.296l.064-2.646a10.125 10.125 0 0 1 2.618-.297c2.791 0 4.884 1.201 4.884 4.96v12.38zm8.483-14.352h-.445c-1.725 0-2.973 1.51-2.973 3.527v10.81l-3.635.023v-16.982l3.453-.18v1.357a3.482 3.482 0 0 1 2.937-1.357h.663zm4.556 14.352h-3.635v-17.154h3.635zm4.04.076a9.004 9.004 0 0 1 -3.34-.564l1.433-2.546a3.59 3.59 0 0 0 1.576.3c1.139 0 2.06-.765 2.06-1.79 0-1.2-.48-2.081-1.802-3.575-2.278-2.15-2.9-3.202-2.9-4.96 0-2.402 2.165-4.268 4.956-4.268a8.144 8.144 0 0 1 2.9.513l-1.32 2.402a3.188 3.188 0 0 0 -1.357-.232 1.405 1.405 0 0 0 -1.47 1.289c0 .664.294 1.325 1.76 2.682 2.133 1.918 3.123 3.375 3.123 5.79 0 2.95-2.57 4.967-5.619 4.967zm9.994-.076h-3.636v-17.154h3.636zm4.884-6.077c.186 2.514 1.325 3.507 2.537 3.507a5.2 5.2 0 0 0 1.099-.068v2.582c-.46.089-.926.133-1.394.132-2.606 0-6.06-1.425-6.06-8.735 0-7.579 3.192-8.668 5.252-8.668 1.947 0 4.37 1.322 4.37 4.929 0 4.275-4.08 6.197-5.804 6.33zm16.893 6.077h-3.636v-12.29c0-1.201-.59-2.218-1.434-2.218s-1.47 1.025-1.47 2.218v12.29h-3.636v-17.154h3.345v.892l1.135-1.025c.207-.03.417-.041.626-.032 3.123 0 5.066 1.886 5.066 5.954z" fill="#000"/><path d="m34.275 46.951v11.141c.712-.099 3.189-1.704 3.189-6.292-.016-3.834-1.495-4.849-3.189-4.849z" fill="#000"/></g></g></svg>